<?xml version="1.0" standalone="no"?>
<!DOCTYPE svg PUBLIC "-//W3C//DTD SVG 20010904//EN"
 "http://www.w3.org/TR/2001/REC-SVG-20010904/DTD/svg10.dtd">
<svg version="1.0" xmlns="http://www.w3.org/2000/svg"
 width="512.000000pt" height="512.000000pt" viewBox="0 0 512.000000 512.000000"
 preserveAspectRatio="xMidYMid meet">

<g transform="translate(0.000000,512.000000) scale(0.100000,-0.100000)"
fill="#555" stroke="none">
<path d="M2494 5051 c-24 -11 -50 -33 -62 -53 -20 -32 -22 -49 -22 -184 0
-167 9 -195 72 -234 69 -42 166 -17 208 52 18 29 20 51 20 182 0 135 -2 152
-22 184 -22 36 -85 72 -128 72 -14 0 -43 -9 -66 -19z"/>
<path d="M2488 4230 c-20 -11 -45 -35 -57 -53 -19 -32 -21 -49 -21 -233 0
-222 5 -243 72 -284 69 -42 166 -17 208 52 18 30 20 51 20 232 0 226 -6 248
-81 286 -48 25 -93 25 -141 0z"/>
<path d="M130 3922 c-21 -11 -44 -35 -57 -62 l-23 -44 0 -1256 0 -1256 22 -44
c30 -58 76 -83 145 -77 51 3 63 12 865 613 447 335 832 626 855 648 69 62 78
154 22 215 -12 12 -397 304 -856 649 -824 618 -835 626 -886 629 -38 3 -62 -1
-87 -15z"/>
<path d="M4860 3933 c-8 -3 -394 -289 -856 -636 -528 -395 -848 -642 -860
-661 -23 -40 -23 -112 0 -152 12 -19 334 -268 863 -664 834 -626 845 -634 896
-637 68 -5 114 19 144 77 l23 43 0 1256 0 1257 -22 44 c-14 27 -36 50 -58 62
-33 17 -98 23 -130 11z"/>
<path d="M2493 3309 c-77 -38 -83 -57 -83 -286 0 -191 1 -202 23 -233 36 -54
71 -74 127 -74 56 0 91 20 128 74 21 31 22 42 22 229 0 227 -6 249 -80 288
-53 28 -83 29 -137 2z"/>
<path d="M2516 2400 c-16 -5 -40 -19 -53 -32 -50 -46 -53 -64 -53 -270 0 -224
6 -246 80 -285 54 -29 86 -29 140 0 74 39 80 61 80 288 0 187 -1 198 -22 229
-43 63 -109 90 -172 70z"/>
<path d="M2482 1460 c-67 -41 -72 -62 -72 -284 0 -226 6 -248 81 -286 49 -25
89 -25 138 0 75 38 81 60 81 286 0 181 -2 202 -20 232 -42 69 -139 94 -208 52z"/>
<path d="M2482 540 c-63 -39 -72 -67 -72 -234 0 -132 2 -152 20 -182 22 -35
91 -74 131 -74 42 1 105 36 127 72 20 32 22 49 22 184 0 131 -2 153 -20 182
-42 69 -139 94 -208 52z"/>
</g>
</svg>
