<?xml version="1.0" standalone="no"?>
<!DOCTYPE svg PUBLIC "-//W3C//DTD SVG 20010904//EN"
 "http://www.w3.org/TR/2001/REC-SVG-20010904/DTD/svg10.dtd">
<svg version="1.0" xmlns="http://www.w3.org/2000/svg"
 width="512.000000pt" height="512.000000pt" viewBox="0 0 512.000000 512.000000"
 preserveAspectRatio="xMidYMid meet">

<g transform="translate(0.000000,512.000000) scale(0.100000,-0.100000)"
fill="#555" stroke="none">
<path d="M1052 4783 c-70 -34 -107 -121 -83 -194 8 -25 217 -240 763 -786 667
-666 757 -752 791 -758 94 -17 47 -59 865 758 546 546 755 761 763 786 25 73
-13 161 -84 195 -32 15 -163 16 -1509 16 -1343 0 -1476 -2 -1506 -17z"/>
<path d="M415 2706 c-97 -43 -124 -171 -54 -251 45 -51 78 -57 301 -53 215 3
223 5 272 72 29 39 29 133 0 172 -50 67 -55 69 -282 71 -157 2 -214 0 -237
-11z"/>
<path d="M1375 2706 c-97 -43 -124 -171 -54 -251 45 -51 78 -57 301 -53 215 3
223 5 272 72 29 39 29 133 0 172 -50 67 -55 69 -282 71 -157 2 -214 0 -237
-11z"/>
<path d="M2335 2706 c-97 -43 -124 -171 -54 -251 45 -51 78 -57 301 -53 215 3
223 5 272 72 29 39 29 133 0 172 -50 67 -55 69 -282 71 -157 2 -214 0 -237
-11z"/>
<path d="M3295 2706 c-97 -43 -124 -171 -54 -251 45 -51 78 -57 301 -53 215 3
223 5 272 72 29 39 29 133 0 172 -50 67 -55 69 -282 71 -157 2 -214 0 -237
-11z"/>
<path d="M4255 2706 c-97 -43 -124 -171 -54 -251 45 -51 78 -57 301 -53 215 3
223 5 272 72 29 39 29 133 0 172 -50 67 -55 69 -282 71 -157 2 -214 0 -237
-11z"/>
<path d="M2495 2066 c-16 -8 -366 -351 -777 -763 -664 -666 -747 -752 -754
-786 -9 -51 1 -94 31 -132 53 -70 -67 -65 1565 -65 1632 0 1512 -5 1565 65 30
38 40 81 31 132 -7 34 -90 120 -754 787 -433 434 -761 754 -779 762 -40 17
-89 17 -128 0z"/>
</g>
</svg>
