<svg version="1.0" xmlns="http://www.w3.org/2000/svg"
 width="128.000000pt" height="128.000000pt" viewBox="0 0 128.000000 128.000000"
 preserveAspectRatio="xMidYMid meet" fill="#555">

<g transform="translate(0.000000,128.000000) scale(0.100000,-0.100000)"
fill="#000000" stroke="none">
<path d="M248 1113 c-176 -223 -248 -320 -248 -331 0 -15 0 -14 354 -391 142
-152 264 -280 272 -284 8 -4 20 -4 28 0 8 4 130 132 272 284 354 377 354 376
354 391 0 7 -67 99 -148 203 l-148 190 -342 3 -341 2 -53 -67z m602 -17 c0 -6
-203 -176 -210 -176 -7 0 -210 170 -210 176 0 2 95 4 210 4 116 0 210 -2 210
-4z m-386 -132 l136 -115 0 -307 c0 -258 -2 -304 -14 -292 -7 8 -122 131 -255
272 -171 182 -240 262 -234 272 18 31 219 286 225 286 3 0 67 -52 142 -116z
m615 -33 c61 -79 111 -146 111 -148 0 -2 -109 -120 -241 -261 -133 -141 -248
-264 -255 -272 -12 -12 -14 34 -14 292 l0 307 136 116 c75 64 140 115 145 113
4 -2 57 -68 118 -147z"/>
</g>
</svg>
